<svg width="64" height="64" viewBox="0 0 64 64" xmlns="http://www.w3.org/2000/svg">
  <!-- Background circle -->
  <circle cx="32" cy="32" r="30" fill="#D4AF37" stroke="#4A403A" stroke-width="2"/>
  
  <!-- Paint palette -->
  <circle cx="32" cy="35" r="12" fill="#F3EADF" stroke="#4A403A" stroke-width="2"/>
  <circle cx="32" cy="35" r="8" fill="#FFFFFF" stroke="#4A403A" stroke-width="1"/>
  
  <!-- Paint colors on palette -->
  <circle cx="28" cy="30" r="2" fill="#CE1126"/>
  <circle cx="36" cy="30" r="2" fill="#006B3F"/>
  <circle cx="32" cy="40" r="2" fill="#FCD116"/>
  <circle cx="26" cy="38" r="2" fill="#002395"/>
  <circle cx="38" cy="38" r="2" fill="#C1272D"/>
  
  <!-- Paintbrush -->
  <rect x="45" y="20" width="2" height="12" fill="#8B4513" rx="1"/>
  <path d="M46 20 L46 15 L50 15 L50 20 Z" fill="#8B4513"/>
  <path d="M46 15 L48 12 L50 15" fill="#8B4513"/>
  
  <!-- Creative sparkles -->
  <path d="M15 20 L17 20 L17 22 L15 22 Z" fill="#FCD116"/>
  <path d="M50 45 L52 45 L52 47 L50 47 Z" fill="#FCD116"/>
  <path d="M18 48 L20 48 L20 50 L18 50 Z" fill="#FCD116"/>
  
  <!-- Paint splashes -->
  <ellipse cx="20" cy="25" rx="3" ry="2" fill="#CE1126" opacity="0.7"/>
  <ellipse cx="45" cy="45" rx="2" ry="3" fill="#006B3F" opacity="0.7"/>
</svg> 