<svg width="64" height="64" viewBox="0 0 64 64" xmlns="http://www.w3.org/2000/svg">
  <!-- Background circle -->
  <circle cx="32" cy="32" r="30" fill="#D4AF37" stroke="#4A403A" stroke-width="2"/>
  
  <!-- People in circle -->
  <!-- Person 1 (top) -->
  <circle cx="32" cy="15" r="3" fill="#4A403A"/>
  <rect x="31" y="18" width="2" height="5" fill="#4A403A" rx="1"/>
  
  <!-- Person 2 (top right) -->
  <circle cx="45" cy="20" r="3" fill="#4A403A"/>
  <rect x="44" y="23" width="2" height="5" fill="#4A403A" rx="1"/>
  
  <!-- Person 3 (right) -->
  <circle cx="49" cy="32" r="3" fill="#4A403A"/>
  <rect x="48" y="35" width="2" height="5" fill="#4A403A" rx="1"/>
  
  <!-- Person 4 (bottom right) -->
  <circle cx="45" cy="44" r="3" fill="#4A403A"/>
  <rect x="44" y="47" width="2" height="5" fill="#4A403A" rx="1"/>
  
  <!-- Person 5 (bottom) -->
  <circle cx="32" cy="49" r="3" fill="#4A403A"/>
  <rect x="31" y="52" width="2" height="5" fill="#4A403A" rx="1"/>
  
  <!-- Person 6 (bottom left) -->
  <circle cx="19" cy="44" r="3" fill="#4A403A"/>
  <rect x="18" y="47" width="2" height="5" fill="#4A403A" rx="1"/>
  
  <!-- Person 7 (left) -->
  <circle cx="15" cy="32" r="3" fill="#4A403A"/>
  <rect x="14" y="35" width="2" height="5" fill="#4A403A" rx="1"/>
  
  <!-- Person 8 (top left) -->
  <circle cx="19" cy="20" r="3" fill="#4A403A"/>
  <rect x="18" y="23" width="2" height="5" fill="#4A403A" rx="1"/>
  
  <!-- Connecting lines -->
  <path d="M32 18 L45 23 M45 28 L49 35 M45 49 L49 39 M32 54 L45 49 M19 49 L32 54 M15 40 L19 49 M19 23 L15 35 M32 18 L19 23" stroke="#006B3F" stroke-width="2" fill="none"/>
  
  <!-- Center sun -->
  <circle cx="32" cy="32" r="6" fill="#FCD116"/>
  <path d="M32 20 L32 16 M32 48 L32 52 M44 32 L48 32 M16 32 L12 32 M40 24 L43 21 M24 40 L21 43 M40 40 L43 43 M24 24 L21 21" stroke="#FCD116" stroke-width="2"/>
</svg> 