<svg width="64" height="64" viewBox="0 0 64 64" xmlns="http://www.w3.org/2000/svg">
  <!-- Background circle -->
  <circle cx="32" cy="32" r="30" fill="#D4AF37" stroke="#4A403A" stroke-width="2"/>
  
  <!-- Family figures -->
  <!-- Adult 1 (left) -->
  <circle cx="20" cy="25" r="4" fill="#4A403A"/>
  <rect x="18" y="29" width="4" height="8" fill="#4A403A" rx="2"/>
  
  <!-- Adult 2 (right) -->
  <circle cx="44" cy="25" r="4" fill="#4A403A"/>
  <rect x="42" y="29" width="4" height="8" fill="#4A403A" rx="2"/>
  
  <!-- Child (center) -->
  <circle cx="32" cy="30" r="3" fill="#4A403A"/>
  <rect x="31" y="33" width="2" height="6" fill="#4A403A" rx="1"/>
  
  <!-- Heart symbol -->
  <path d="M32 45 Q32 40 28 40 Q24 40 24 44 Q24 48 32 52 Q40 48 40 44 Q40 40 36 40 Q32 40 32 45" fill="#CE1126"/>
  
  <!-- Health cross -->
  <rect x="30" y="15" width="4" height="8" fill="#006B3F"/>
  <rect x="26" y="19" width="12" height="4" fill="#006B3F"/>
</svg> 