<svg width="64" height="64" viewBox="0 0 64 64" xmlns="http://www.w3.org/2000/svg">
  <!-- Background circle -->
  <circle cx="32" cy="32" r="30" fill="#D4AF37" stroke="#4A403A" stroke-width="2"/>
  
  <!-- Central hands in support gesture -->
  <path d="M25 35 L25 45 Q25 50 30 50 Q35 50 35 45 L35 35 Q35 30 30 30 Q25 30 25 35" fill="#4A403A"/>
  <path d="M29 35 L29 45 Q29 50 34 50 Q39 50 39 45 L39 35 Q39 30 34 30 Q29 30 29 35" fill="#4A403A"/>
  
  <!-- Fingers -->
  <path d="M25 35 L23 32 L25 30" fill="#4A403A"/>
  <path d="M29 35 L27 32 L29 30" fill="#4A403A"/>
  <path d="M33 35 L31 32 L33 30" fill="#4A403A"/>
  <path d="M37 35 L35 32 L37 30" fill="#4A403A"/>
  
  <!-- People around the hands -->
  <!-- Person 1 (top left) -->
  <circle cx="20" cy="20" r="3" fill="#4A403A"/>
  <rect x="19" y="23" width="2" height="4" fill="#4A403A" rx="1"/>
  
  <!-- Person 2 (top right) -->
  <circle cx="44" cy="20" r="3" fill="#4A403A"/>
  <rect x="43" y="23" width="2" height="4" fill="#4A403A" rx="1"/>
  
  <!-- Person 3 (bottom left) -->
  <circle cx="20" cy="50" r="3" fill="#4A403A"/>
  <rect x="19" y="53" width="2" height="4" fill="#4A403A" rx="1"/>
  
  <!-- Person 4 (bottom right) -->
  <circle cx="44" cy="50" r="3" fill="#4A403A"/>
  <rect x="43" y="53" width="2" height="4" fill="#4A403A" rx="1"/>
  
  <!-- Connecting lines to hands -->
  <path d="M23 23 L28 35 M41 23 L36 35 M23 53 L28 41 M41 53 L36 41" stroke="#006B3F" stroke-width="2" fill="none"/>
  
  <!-- Heart symbols -->
  <path d="M15 15 Q15 12 18 12 Q21 12 21 15 Q21 18 18 18 Q15 18 15 15" fill="#CE1126"/>
  <path d="M49 15 Q49 12 52 12 Q55 12 55 15 Q55 18 52 18 Q49 18 49 15" fill="#CE1126"/>
  <path d="M15 55 Q15 52 18 52 Q21 52 21 55 Q21 58 18 58 Q15 58 15 55" fill="#CE1126"/>
  <path d="M49 55 Q49 52 52 52 Q55 52 55 55 Q55 58 52 58 Q49 58 49 55" fill="#CE1126"/>
  
  <!-- Volunteer badge -->
  <circle cx="32" cy="25" r="4" fill="#FCD116" stroke="#4A403A" stroke-width="1"/>
  <text x="32" y="28" text-anchor="middle" fill="#4A403A" font-family="Arial" font-size="6" font-weight="bold">V</text>
</svg> 